<svg xmlns="http://www.w3.org/2000/svg" width="920" height="460" viewBox="0 0 920 460">
<rect width="100%" height="100%" fill="#ffffff"/>
<text x="460.0" y="30.0" font-size="18" font-weight="700" text-anchor="middle" fill="#1f2937">Prefill TPS per Card by Prefix Cache Hit Rate</text>
<text x="90.0" y="46.0" font-size="12" font-weight="400" text-anchor="start" fill="#1f2937">tokens/s/card</text>
<line x1="90" y1="60" x2="90" y2="374" stroke="#374151"/>
<line x1="90" y1="374" x2="880" y2="374" stroke="#374151"/>
<line x1="90" y1="374.0" x2="880" y2="374.0" stroke="#e5e7eb"/>
<text x="80.0" y="378.0" font-size="11" font-weight="400" text-anchor="end" fill="#1f2937">0.0</text>
<line x1="90" y1="311.2" x2="880" y2="311.2" stroke="#e5e7eb"/>
<text x="80.0" y="315.2" font-size="11" font-weight="400" text-anchor="end" fill="#1f2937">126,571.0</text>
<line x1="90" y1="248.4" x2="880" y2="248.4" stroke="#e5e7eb"/>
<text x="80.0" y="252.4" font-size="11" font-weight="400" text-anchor="end" fill="#1f2937">253,142.1</text>
<line x1="90" y1="185.6" x2="880" y2="185.6" stroke="#e5e7eb"/>
<text x="80.0" y="189.6" font-size="11" font-weight="400" text-anchor="end" fill="#1f2937">379,713.1</text>
<line x1="90" y1="122.8" x2="880" y2="122.8" stroke="#e5e7eb"/>
<text x="80.0" y="126.8" font-size="11" font-weight="400" text-anchor="end" fill="#1f2937">506,284.1</text>
<line x1="90" y1="60.0" x2="880" y2="60.0" stroke="#e5e7eb"/>
<text x="80.0" y="64.0" font-size="11" font-weight="400" text-anchor="end" fill="#1f2937">632,855.2</text>
<rect x="104.5" y="371.0" width="36.9" height="3.0" fill="#2563eb"/>
<text x="122.9" y="363.0" font-size="11" font-weight="400" text-anchor="middle" fill="#1f2937">6,108.94</text>
<text x="122.9" y="396.0" font-size="10" font-weight="400" text-anchor="middle" fill="#1f2937">8K</text>
<text x="122.9" y="410.0" font-size="10" font-weight="400" text-anchor="middle" fill="#1f2937">h=0</text>
<rect x="170.3" y="342.6" width="36.9" height="31.4" fill="#2563eb"/>
<text x="188.7" y="334.6" font-size="11" font-weight="400" text-anchor="middle" fill="#1f2937">63,281.71</text>
<text x="188.7" y="396.0" font-size="10" font-weight="400" text-anchor="middle" fill="#1f2937">8K</text>
<text x="188.7" y="410.0" font-size="10" font-weight="400" text-anchor="middle" fill="#1f2937">h=0.9</text>
<rect x="236.1" y="60.0" width="36.9" height="314.0" fill="#2563eb"/>
<text x="254.6" y="52.0" font-size="11" font-weight="400" text-anchor="middle" fill="#1f2937">632,855.18</text>
<text x="254.6" y="396.0" font-size="10" font-weight="400" text-anchor="middle" fill="#1f2937">8K</text>
<text x="254.6" y="410.0" font-size="10" font-weight="400" text-anchor="middle" fill="#1f2937">h=0.99</text>
<rect x="302.0" y="371.3" width="36.9" height="2.7" fill="#2563eb"/>
<text x="320.4" y="363.3" font-size="11" font-weight="400" text-anchor="middle" fill="#1f2937">5,422.75</text>
<text x="320.4" y="396.0" font-size="10" font-weight="400" text-anchor="middle" fill="#1f2937">32K</text>
<text x="320.4" y="410.0" font-size="10" font-weight="400" text-anchor="middle" fill="#1f2937">h=0</text>
<rect x="367.8" y="343.0" width="36.9" height="31.0" fill="#2563eb"/>
<text x="386.2" y="335.0" font-size="11" font-weight="400" text-anchor="middle" fill="#1f2937">62,577.72</text>
<text x="386.2" y="396.0" font-size="10" font-weight="400" text-anchor="middle" fill="#1f2937">32K</text>
<text x="386.2" y="410.0" font-size="10" font-weight="400" text-anchor="middle" fill="#1f2937">h=0.9</text>
<rect x="433.6" y="60.0" width="36.9" height="314.0" fill="#2563eb"/>
<text x="452.1" y="52.0" font-size="11" font-weight="400" text-anchor="middle" fill="#1f2937">632,756.72</text>
<text x="452.1" y="396.0" font-size="10" font-weight="400" text-anchor="middle" fill="#1f2937">32K</text>
<text x="452.1" y="410.0" font-size="10" font-weight="400" text-anchor="middle" fill="#1f2937">h=0.99</text>
<rect x="499.5" y="372.2" width="36.9" height="1.8" fill="#2563eb"/>
<text x="517.9" y="364.2" font-size="11" font-weight="400" text-anchor="middle" fill="#1f2937">3,560.92</text>
<text x="517.9" y="396.0" font-size="10" font-weight="400" text-anchor="middle" fill="#1f2937">128K</text>
<text x="517.9" y="410.0" font-size="10" font-weight="400" text-anchor="middle" fill="#1f2937">h=0</text>
<rect x="565.3" y="344.4" width="36.9" height="29.6" fill="#2563eb"/>
<text x="583.7" y="336.4" font-size="11" font-weight="400" text-anchor="middle" fill="#1f2937">59,659.15</text>
<text x="583.7" y="396.0" font-size="10" font-weight="400" text-anchor="middle" fill="#1f2937">128K</text>
<text x="583.7" y="410.0" font-size="10" font-weight="400" text-anchor="middle" fill="#1f2937">h=0.9</text>
<rect x="631.1" y="60.6" width="36.9" height="313.4" fill="#2563eb"/>
<text x="649.6" y="52.6" font-size="11" font-weight="400" text-anchor="middle" fill="#1f2937">631,687.92</text>
<text x="649.6" y="396.0" font-size="10" font-weight="400" text-anchor="middle" fill="#1f2937">128K</text>
<text x="649.6" y="410.0" font-size="10" font-weight="400" text-anchor="middle" fill="#1f2937">h=0.99</text>
<rect x="697.0" y="373.6" width="36.9" height="0.4" fill="#2563eb"/>
<text x="715.4" y="365.6" font-size="11" font-weight="400" text-anchor="middle" fill="#1f2937">881.17</text>
<text x="715.4" y="396.0" font-size="10" font-weight="400" text-anchor="middle" fill="#1f2937">1M</text>
<text x="715.4" y="410.0" font-size="10" font-weight="400" text-anchor="middle" fill="#1f2937">h=0</text>
<rect x="762.8" y="354.2" width="36.9" height="19.8" fill="#2563eb"/>
<text x="781.2" y="346.2" font-size="11" font-weight="400" text-anchor="middle" fill="#1f2937">39,946.40</text>
<text x="781.2" y="396.0" font-size="10" font-weight="400" text-anchor="middle" fill="#1f2937">1M</text>
<text x="781.2" y="410.0" font-size="10" font-weight="400" text-anchor="middle" fill="#1f2937">h=0.9</text>
<rect x="828.6" y="73.6" width="36.9" height="300.4" fill="#2563eb"/>
<text x="847.1" y="65.6" font-size="11" font-weight="400" text-anchor="middle" fill="#1f2937">605,395.66</text>
<text x="847.1" y="396.0" font-size="10" font-weight="400" text-anchor="middle" fill="#1f2937">1M</text>
<text x="847.1" y="410.0" font-size="10" font-weight="400" text-anchor="middle" fill="#1f2937">h=0.99</text>
</svg>
